<svg xmlns="http://www.w3.org/2000/svg" width="512" height="512" viewBox="0 0 598.16 598.159"><path d="M466.361 146.097C466.361 65.539 391.32 0 299.08 0c-92.241 0-167.281 65.539-167.281 146.097v344.207c0 29.119 13.036 56.411 36.705 76.849 23.158 19.994 53.798 31.007 86.276 31.007 67.812 0 122.981-48.382 122.981-107.853V184.343c.107-18.865-8.265-36.613-23.574-49.899-14.36-12.463-33.933-19.327-55.11-19.327-21.178 0-40.75 6.863-55.111 19.327-15.309 13.287-23.684 31.065-23.574 50.062V452.06c0 17.292 15.425 31.362 34.388 31.362s34.389-14.07 34.389-31.362V184.343c-.006-1.658.75-3.136 2.252-4.449 1.735-1.5 4.614-2.417 7.656-2.417 3.041 0 5.921.921 7.705 2.46.985.86 2.212 2.335 2.203 4.259v306.107c0 24.884-24.318 45.129-54.205 45.129-29.887 0-54.205-20.245-54.205-45.129V146.097c.003-45.971 44.189-83.373 98.504-83.373 54.315 0 98.501 37.402 98.501 83.373v267.716c0 17.292 15.426 31.362 34.389 31.362s34.389-14.07 34.389-31.362V146.097h.003z" data-original="#000000" class="active-path" data-old_color="#000000" fill="#00AF80"/></svg>