<svg xmlns="http://www.w3.org/2000/svg" viewBox="0 0 492 492" width="512" height="512"><path data-original="#010002" class="active-path" data-old_color="#010002" fill="#010002" d="M250 206H0v26h21v244h177V232h52z"/><path d="M380 327c33 1 51-8 54-34l13-119c3-23-15-40-32-46h-1l-12-3h-12c-13 2-27 12-27 12-25 18-65 22-117 11a24 24 0 10-10 48c22 4 43 7 62 7 17 0 32-2 46-6v2l-8 76c-44 1-72 10-83 27-15 22-39 113-46 141a27 27 0 0052 13c13-49 30-100 37-116 7-14 49-15 84-13z" data-original="#010002" class="active-path" data-old_color="#010002" fill="#010002"/><circle cx="395.9" cy="67.8" r="54.3" data-original="#010002" class="active-path" data-old_color="#010002" fill="#010002"/><path d="M485 275l7-94a2 2 0 00-2-2h-30a2 2 0 00-2 2l-6 94c-1 28-10 64-58 64h-54a2 2 0 00-1 0 2 2 0 00-1 2v29l2 2h49v66h-15c-20 0-37 18-37 38l2 2h19a2 2 0 002-2c0-7 6-14 14-14h63c7 0 14 7 14 14 0 1 0 2 2 2h19l2-2c0-20-17-38-37-38h-15v-70c47-1 58-49 63-93zm-281-98h-92L81 63a1 1 0 00-2-1l-17 5a2 2 0 00-1 2l35 127a2 2 0 002 1h106a2 2 0 001-1v-17a2 2 0 00-1-2z" data-original="#010002" class="active-path" data-old_color="#010002" fill="#010002"/></svg>