<svg xmlns="http://www.w3.org/2000/svg" viewBox="0 0 512 512"><path d="M496 190a45 45 0 00-63 5l-10 12 69 57 9-11c16-19 14-47-5-63zM301 351l-5 6a45 45 0 00-9 18l-14 58a15 15 0 005 15c4 4 10 5 16 3l55-24a45 45 0 0016-13l5-6-69-57zm103-121l-83 98 69 57 83-98zM376 67l-57-55c-5-5-12-8-19-10v88h89c-2-9-6-17-13-23z"/><path d="M258 368c2-11 8-22 15-31l117-138v-79H285c-8 0-15-7-15-15V0H45C20 0 0 20 0 45v422c0 25 20 45 45 45h300c25 0 45-20 45-45v-35l-2 2c-7 9-17 16-27 20l-55 24a45 45 0 01-62-52l14-58zM75 90h150a15 15 0 110 30H75a15 15 0 110-30zm0 91h240a15 15 0 110 30H75a15 15 0 110-30zm120 210H75a15 15 0 110-30h120a15 15 0 110 30zM75 301a15 15 0 110-30h180a15 15 0 110 30H75z"/></svg>