<svg xmlns="http://www.w3.org/2000/svg" viewBox="0 0 512 512"><path d="M467 0H45C20 0 0 20 0 45v302c0 25 20 45 45 45h135v30h151v-30h136c25 0 45-20 45-45V45c0-25-20-45-45-45zM176 267l-60 60c-6 5-16 5-22 0l-30-30a15 15 0 1122-22l19 20 49-50a15 15 0 1122 22zm0-90l-60 60c-6 5-16 5-22 0l-30-30a15 15 0 1122-22l19 20 49-50a15 15 0 1122 22zm0-90l-60 60c-6 5-16 5-22 0l-30-30a15 15 0 1122-22l19 20 49-50a15 15 0 1122 22zm261 214H225a15 15 0 110-30h212a15 15 0 110 30zm0-90H225a15 15 0 110-30h212a15 15 0 110 30zm0-90H225a15 15 0 110-30h212a15 15 0 110 30zm-76 331H151c-33 0-60 27-60 60h330c0-33-27-60-60-60z"/></svg>