<svg xmlns="http://www.w3.org/2000/svg" viewBox="0 0 367 367" width="512" height="512"><path d="M272 76c-17 0-30-14-30-30V0H60c-6 0-10 5-10 10v347c0 5 4 10 10 10h248c5 0 10-5 10-10V76h-46zM136 185c-4 4-11 6-20 6h-13v20c0 12-15 12-15 0v-55c0-6 3-9 10-9l31 1c17 5 17 29 7 37zm79 9c-2 13-10 22-23 24l-28 1c-7 0-9-3-9-11v-52c0-6 3-9 9-9 9 0 24-1 32 1 18 5 23 28 19 46zm62-37l-5 1h-29v19h24c9 0 9 11 0 11h-24v23c0 11-9 11-12 7l-2-7v-55c0-6 3-9 9-9h34c8 0 8 7 5 10z" data-original="#000000" class="active-path" data-old_color="#000000" fill="#FB5252"/><path d="M113 158h-10v22c10 0 25 2 25-11 0-9-6-11-15-11zm66 1h-9v49c6 0 16 0 20-2 14-4 13-31 8-39-4-7-10-8-19-8zm93-101h33l-46-46v34c0 7 6 12 13 12z" data-original="#000000" class="active-path" data-old_color="#000000" fill="#FB5252"/></svg>