<svg xmlns="http://www.w3.org/2000/svg" width="512" height="512" viewBox="0 0 439 439"><path d="M418 76c-2-2-4-3-7-3h-88l-20-48c-3-7-8-13-15-18-8-5-15-7-23-7h-91c-8 0-16 2-23 7s-13 11-15 18l-20 48H27l-6 3c-2 1-3 4-3 6v18c0 3 1 5 3 7l6 3h28v271c0 16 4 30 13 41s20 17 32 17h238c13 0 23-6 32-18 9-11 14-25 14-41V110h27c3 0 5-1 7-3l2-7V82l-2-6zM169 40c2-2 3-3 5-3h91c2 0 3 1 5 3l13 33H155l14-33zm178 340a32 32 0 01-6 20l-3 2H100l-3-2-4-8-2-12V110h256v270z" data-original="#000000" class="active-path"/><path d="M137 347h18l7-2c2-2 2-4 2-7V174c0-3 0-5-2-7s-4-3-7-3h-18c-3 0-5 1-7 3l-2 7v164l2 7 7 2zm73 0h18l7-2c2-2 3-4 3-7V174c0-3-1-5-3-7s-4-3-7-3h-18c-3 0-5 1-6 3-2 2-3 4-3 7v164c0 3 1 5 3 7l6 2zm73 0h18l7-2c2-2 3-4 3-7V174c0-3-1-5-3-7s-4-3-7-3h-18c-2 0-5 1-6 3-2 2-3 4-3 7v164c0 3 1 5 3 7l6 2z" data-original="#000000" class="active-path"/></svg>